<?xml version="1.0" encoding="UTF-8" standalone="no"?>
<!-- Created with Inkscape (http://www.inkscape.org/) -->

<svg
   version="1.1"
   id="svg2"
   xml:space="preserve"
   width="677.33331"
   height="261.33334"
   viewBox="0 0 677.33331 261.33334"
   sodipodi:docname="athen-eps.eps"
   xmlns:inkscape="http://www.inkscape.org/namespaces/inkscape"
   xmlns:sodipodi="http://sodipodi.sourceforge.net/DTD/sodipodi-0.dtd"
   xmlns="http://www.w3.org/2000/svg"
   xmlns:svg="http://www.w3.org/2000/svg"><defs
     id="defs6" /><sodipodi:namedview
     id="namedview4"
     pagecolor="#ffffff"
     bordercolor="#666666"
     borderopacity="1.0"
     inkscape:pageshadow="2"
     inkscape:pageopacity="0.0"
     inkscape:pagecheckerboard="0" /><g
     id="g8"
     inkscape:groupmode="layer"
     inkscape:label="ink_ext_XXXXXX"
     transform="matrix(1.3333333,0,0,-1.3333333,0,261.33333)"><g
       id="g10"
       transform="scale(0.1)"><path
         d="m 3949.83,1190.09 c 70.9,0 128.98,-22.42 174.04,-67.27 45.06,-44.84 67.48,-103.14 67.48,-174.894 V 552.641 h -167.21 v 341.472 c 0,44.844 -10.46,79.227 -31.39,103.145 -20.93,23.922 -50.82,35.872 -89.69,35.872 -38.01,0 -69.4,-11.95 -94.18,-36.087 -24.77,-24.129 -37.15,-58.941 -37.15,-104.211 V 552.641 h -167.22 v 620.799 h 162.73 v -73.04 c 40.15,59.8 101.01,89.69 182.59,89.69"
         style="fill:#231f20;fill-opacity:1;fill-rule:nonzero;stroke:none"
         id="path12" /><path
         d="m 1655.34,552.641 h -190.91 l -78.16,208.855 H 1003.8 L 925.637,552.641 h -186.43 l 349.153,896.919 h 217.82 z M 1065.3,926.145 h 259.46 l -129.4,346.595 z"
         style="fill:#231f20;fill-opacity:1;fill-rule:nonzero;stroke:none"
         id="path14" /><path
         d="M 2084.5,1024.8 H 1859.63 V 798.012 c 0,-36.305 8.54,-62.996 25.62,-80.082 17.09,-17.082 39.51,-25.625 67.27,-25.625 33.32,0 72.18,13.453 116.6,40.363 l 61.51,-130.695 c -62.79,-43.567 -131.34,-65.348 -205.66,-65.348 -76.87,0 -134.75,21.141 -173.83,63.211 -39.08,42.07 -58.72,103.574 -58.72,184.723 V 1024.8 h -119.81 v 148.64 h 119.81 v 184.51 h 167.21 V 1173.44 H 2084.5 V 1024.8"
         style="fill:#231f20;fill-opacity:1;fill-rule:nonzero;stroke:none"
         id="path16" /><path
         d="m 2366.3,1106.81 c 39.72,55.52 99.09,83.28 178.1,83.28 70.9,0 128.99,-22.42 174.05,-67.27 45.06,-44.84 67.48,-103.14 67.48,-174.894 V 552.641 h -167.21 v 341.472 c 0,44.844 -10.46,79.227 -31.39,103.145 -20.93,23.922 -50.83,35.872 -89.69,35.872 -38.01,0 -69.41,-11.95 -94.18,-36.087 -24.77,-24.129 -37.16,-58.941 -37.16,-104.211 V 552.641 h -167.21 v 923.189 h 167.21 v -369.02"
         style="fill:#231f20;fill-opacity:1;fill-rule:nonzero;stroke:none"
         id="path18" /><path
         d="m 3199.07,1190.09 c 89.27,0 161.87,-30.11 217.82,-90.54 55.95,-60.44 83.93,-139.027 83.93,-235.55 0,-21.355 -1.07,-40.148 -3.21,-56.375 h -440.13 c 8.12,-43.137 26.48,-75.387 54.89,-96.742 28.4,-21.352 63.21,-32.031 104.64,-32.031 57.65,0 109.98,19.859 156.96,59.582 l 98.02,-107.633 c -69.19,-62.785 -157.39,-94.176 -264.59,-94.176 -95.25,0 -172.77,29.898 -232.56,89.691 -59.79,59.793 -89.69,138.172 -89.69,235.122 0,97.382 29.04,176.602 87.13,237.472 58.08,60.86 133.68,91.18 226.79,91.18 z m -1.28,-144.14 c -38.87,0 -69.83,-10.68 -93.11,-32.25 -23.28,-21.567 -38.87,-52.317 -46.55,-92.04 h 274.83 c -7.68,40.145 -23.06,70.899 -46.12,92.25 -23.07,21.36 -52.75,32.04 -89.05,32.04"
         style="fill:#231f20;fill-opacity:1;fill-rule:nonzero;stroke:none"
         id="path20" /><path
         d="m 4331.16,726.016 c 21.85,21.472 47.24,32.117 76.37,32.117 29.13,0 54.52,-10.645 76,-32.117 21.47,-21.473 32.12,-46.868 32.12,-75.996 0,-29.504 -10.65,-55.086 -32.12,-76.747 -21.48,-21.66 -46.87,-32.488 -76,-32.488 -29.13,0 -54.52,10.828 -76.37,32.488 -21.85,21.661 -32.86,47.243 -32.86,76.747 0,29.128 11.01,54.523 32.86,75.996"
         style="fill:#ef3420;fill-opacity:1;fill-rule:nonzero;stroke:none"
         id="path22" /></g></g></svg>
