<svg width="52" height="52" viewBox="0 0 52 52" fill="none" xmlns="http://www.w3.org/2000/svg">
<path d="M43.9167 5.33341H41.3333V2.75008C41.3333 1.20008 40.3 0.166748 38.75 0.166748C37.2 0.166748 36.1667 1.20008 36.1667 2.75008V5.33341H15.5V2.75008C15.5 1.20008 14.4667 0.166748 12.9167 0.166748C11.3667 0.166748 10.3333 1.20008 10.3333 2.75008V5.33341H7.75C3.35833 5.33341 0 8.69175 0 13.0834V15.6667H51.6667V13.0834C51.6667 8.69175 48.3083 5.33341 43.9167 5.33341ZM0 44.0834C0 48.4751 3.35833 51.8334 7.75 51.8334H43.9167C48.3083 51.8334 51.6667 48.4751 51.6667 44.0834V20.8334H0V44.0834ZM38.75 26.0001C40.3 26.0001 41.3333 27.0334 41.3333 28.5834C41.3333 30.1334 40.3 31.1667 38.75 31.1667C37.2 31.1667 36.1667 30.1334 36.1667 28.5834C36.1667 27.0334 37.2 26.0001 38.75 26.0001ZM38.75 36.3334C40.3 36.3334 41.3333 37.3667 41.3333 38.9167C41.3333 40.4667 40.3 41.5001 38.75 41.5001C37.2 41.5001 36.1667 40.4667 36.1667 38.9167C36.1667 37.3667 37.2 36.3334 38.75 36.3334ZM25.8333 26.0001C27.3833 26.0001 28.4167 27.0334 28.4167 28.5834C28.4167 30.1334 27.3833 31.1667 25.8333 31.1667C24.2833 31.1667 23.25 30.1334 23.25 28.5834C23.25 27.0334 24.2833 26.0001 25.8333 26.0001ZM25.8333 36.3334C27.3833 36.3334 28.4167 37.3667 28.4167 38.9167C28.4167 40.4667 27.3833 41.5001 25.8333 41.5001C24.2833 41.5001 23.25 40.4667 23.25 38.9167C23.25 37.3667 24.2833 36.3334 25.8333 36.3334ZM12.9167 26.0001C14.4667 26.0001 15.5 27.0334 15.5 28.5834C15.5 30.1334 14.4667 31.1667 12.9167 31.1667C11.3667 31.1667 10.3333 30.1334 10.3333 28.5834C10.3333 27.0334 11.3667 26.0001 12.9167 26.0001ZM12.9167 36.3334C14.4667 36.3334 15.5 37.3667 15.5 38.9167C15.5 40.4667 14.4667 41.5001 12.9167 41.5001C11.3667 41.5001 10.3333 40.4667 10.3333 38.9167C10.3333 37.3667 11.3667 36.3334 12.9167 36.3334Z" fill="#FFFFFF"/>
</svg>
