<svg width="21" height="21" viewBox="0 0 21 21" fill="none" xmlns="http://www.w3.org/2000/svg">
<path d="M9.99542 0.700012C4.47242 0.700012 0 5.18001 0 10.7C0 16.22 4.47242 20.7 9.99542 20.7C15.5284 20.7 20.0108 16.22 20.0108 10.7C20.0108 5.18001 15.5284 0.700012 9.99542 0.700012ZM10.0054 18.7C5.58303 18.7 2.00108 15.12 2.00108 10.7C2.00108 6.28001 5.58303 2.70001 10.0054 2.70001C14.4278 2.70001 18.0098 6.28001 18.0098 10.7C18.0098 15.12 14.4278 18.7 10.0054 18.7ZM9.7853 5.70001H9.72527C9.32505 5.70001 9.00488 6.02001 9.00488 6.42001V11.14C9.00488 11.49 9.18498 11.82 9.49515 12L13.6474 14.49C13.9876 14.69 14.4278 14.59 14.6279 14.25C14.6782 14.169 14.7116 14.0788 14.7262 13.9846C14.7408 13.8905 14.7363 13.7944 14.713 13.702C14.6896 13.6096 14.6479 13.5229 14.5903 13.4469C14.5328 13.371 14.4605 13.3074 14.3778 13.26L10.5057 10.96V6.42001C10.5057 6.02001 10.1855 5.70001 9.7853 5.70001Z" fill="#0E9BE3"/>
</svg>
