<svg width="1000" height="376" viewBox="0 0 1000 376" fill="none" xmlns="http://www.w3.org/2000/svg">
<path d="M520.506 119.17H518.48L537.223 81.1664H542.288V122.2H537.223V89.9413L538.236 90.1938L522.026 122.2H516.96L500.751 90.2569L501.764 90.0044V122.2H496.698V81.1664H501.764L520.506 119.17ZM562.225 81.1664H567.291V122.2H562.225V81.1664ZM622.65 108.501C622.229 111.447 621.216 113.993 619.611 116.14C618.01 118.286 615.961 119.949 613.469 121.127C611.022 122.263 608.277 122.831 605.237 122.831C602.41 122.831 599.792 122.347 597.385 121.379C594.979 120.369 592.872 118.938 591.053 117.087C589.281 115.235 587.888 113.004 586.874 110.395C585.861 107.785 585.355 104.882 585.355 101.683C585.355 98.4425 585.861 95.5385 586.874 92.9715C587.888 90.362 589.281 88.1318 591.053 86.2798C592.872 84.4279 594.979 83.0184 597.385 82.0502C599.792 81.0402 602.41 80.5352 605.237 80.5352C608.322 80.5352 611.085 81.1245 613.532 82.3028C616.024 83.4391 618.073 85.1016 619.674 87.2899C621.28 89.4363 622.293 92.0034 622.713 94.9916H618.028C617.44 92.8871 616.508 91.1195 615.242 89.6888C614.021 88.258 612.542 87.1636 610.809 86.4061C609.082 85.6486 607.223 85.2698 605.237 85.2698C602.664 85.2698 600.235 85.9011 597.955 87.1636C595.721 88.4262 593.903 90.2781 592.51 92.719C591.117 95.1598 590.42 98.148 590.42 101.683C590.42 105.218 591.117 108.207 592.51 110.647C593.903 113.088 595.721 114.94 597.955 116.203C600.235 117.465 602.664 118.097 605.237 118.097C607.223 118.097 609.059 117.739 610.746 117.023C612.478 116.266 613.957 115.172 615.178 113.741C616.445 112.31 617.376 110.563 617.964 108.501H622.65ZM639.52 122.2V81.1664H657.693C660.565 81.1664 663.012 81.6083 665.038 82.4921C667.064 83.334 668.607 84.6173 669.66 86.343C670.76 88.0686 671.307 90.2357 671.307 92.8452C671.307 94.6128 671.013 96.1279 670.42 97.3905C669.873 98.653 669.091 99.7262 668.077 100.61C667.064 101.452 665.861 102.104 664.468 102.567C663.12 103.03 661.641 103.325 660.036 103.451L659.846 103.135C662.085 103.219 664.007 103.493 665.608 103.956C667.214 104.419 668.457 105.26 669.344 106.481C670.23 107.702 670.674 109.532 670.674 111.973V122.2H665.608V111.973C665.608 110.29 665.314 108.985 664.722 108.059C664.174 107.091 663.224 106.418 661.872 106.039C660.565 105.618 658.751 105.408 656.427 105.408H644.586V122.2H639.52ZM644.586 100.673H657.693C660.565 100.673 662.695 99.9575 664.088 98.5268C665.527 97.0536 666.241 95.1598 666.241 92.8452C666.241 90.6145 665.527 88.9101 664.088 87.7318C662.695 86.5112 660.565 85.9011 657.693 85.9011H644.586V100.673ZM707.06 122.831C703.301 122.831 699.882 121.969 696.802 120.243C693.763 118.475 691.334 116.013 689.52 112.857C687.702 109.701 686.798 105.976 686.798 101.683C686.798 97.3905 687.702 93.6659 689.52 90.5095C691.334 87.3111 693.763 84.8491 696.802 83.1234C699.882 81.3978 703.301 80.5352 707.06 80.5352C710.814 80.5352 714.215 81.3978 717.254 83.1234C720.334 84.8491 722.781 87.3111 724.599 90.5095C726.413 93.6659 727.322 97.3905 727.322 101.683C727.322 105.976 726.413 109.701 724.599 112.857C722.781 116.013 720.334 118.475 717.254 120.243C714.215 121.969 710.814 122.831 707.06 122.831ZM707.06 118.097C709.927 118.097 712.505 117.487 714.785 116.266C717.064 115.003 718.878 113.151 720.23 110.711C721.578 108.27 722.257 105.26 722.257 101.683C722.257 98.1061 721.578 95.1178 720.23 92.719C718.878 90.2781 717.064 88.4262 714.785 87.1636C712.505 85.9011 709.927 85.2698 707.06 85.2698C704.229 85.2698 701.655 85.9011 699.335 87.1636C697.055 88.4262 695.237 90.2781 693.889 92.719C692.537 95.1178 691.863 98.1061 691.863 101.683C691.863 105.26 692.537 108.27 693.889 110.711C695.237 113.151 697.055 115.003 699.335 116.266C701.655 117.487 704.229 118.097 707.06 118.097ZM741.329 108.88H745.888C746.015 110.647 746.544 112.226 747.471 113.614C748.399 115.003 749.665 116.098 751.271 116.897C752.917 117.697 754.839 118.097 757.033 118.097C758.932 118.097 760.515 117.823 761.782 117.276C763.089 116.687 764.061 115.887 764.694 114.877C765.368 113.867 765.708 112.689 765.708 111.342C765.708 109.953 765.368 108.838 764.694 107.996C764.02 107.154 763.048 106.439 761.782 105.85C760.515 105.26 759.018 104.692 757.286 104.145C755.64 103.64 753.971 103.051 752.284 102.378C750.597 101.704 749.014 100.884 747.535 99.9156C746.101 98.9475 744.939 97.7904 744.052 96.4435C743.166 95.0547 742.722 93.3922 742.722 91.4564C742.722 89.5625 743.229 87.7949 744.242 86.1536C745.296 84.4703 746.816 83.1234 748.801 82.1134C750.827 81.0614 753.256 80.5352 756.083 80.5352C760.515 80.5352 763.831 81.7346 766.024 84.1335C768.218 86.5324 769.276 89.71 769.19 93.6659H764.631C764.545 90.6777 763.704 88.5313 762.098 87.2268C760.493 85.9223 758.403 85.2698 755.83 85.2698C753.677 85.2698 751.8 85.7748 750.194 86.7849C748.589 87.753 747.788 89.2888 747.788 91.3933C747.788 92.319 747.955 93.1397 748.295 93.8553C748.674 94.5285 749.267 95.1598 750.068 95.7491C750.913 96.3385 752.03 96.9274 753.423 97.5167C754.857 98.0637 756.612 98.6742 758.679 99.3475C760.031 99.7682 761.402 100.273 762.795 100.863C764.229 101.452 765.54 102.188 766.721 103.072C767.946 103.956 768.914 105.092 769.633 106.481C770.393 107.828 770.773 109.532 770.773 111.594C770.773 113.573 770.289 115.424 769.317 117.15C768.39 118.833 766.911 120.201 764.884 121.253C762.899 122.305 760.325 122.831 757.159 122.831C754.459 122.831 752.135 122.474 750.194 121.758C748.295 121.001 746.734 120.032 745.508 118.854C744.283 117.676 743.333 116.455 742.659 115.193C742.026 113.888 741.605 112.668 741.393 111.531C741.18 110.395 741.162 109.511 741.329 108.88ZM805.282 122.831C801.524 122.831 798.105 121.969 795.025 120.243C791.985 118.475 789.556 116.013 787.743 112.857C785.929 109.701 785.02 105.976 785.02 101.683C785.02 97.3905 785.929 93.6659 787.743 90.5095C789.556 87.3111 791.985 84.8491 795.025 83.1234C798.105 81.3978 801.524 80.5352 805.282 80.5352C809.041 80.5352 812.438 81.3978 815.477 83.1234C818.557 84.8491 821.008 87.3111 822.822 90.5095C824.636 93.6659 825.545 97.3905 825.545 101.683C825.545 105.976 824.636 109.701 822.822 112.857C821.008 116.013 818.557 118.475 815.477 120.243C812.438 121.969 809.041 122.831 805.282 122.831ZM805.282 118.097C808.154 118.097 810.728 117.487 813.007 116.266C815.287 115.003 817.101 113.151 818.453 110.711C819.805 108.27 820.479 105.26 820.479 101.683C820.479 98.1061 819.805 95.1178 818.453 92.719C817.101 90.2781 815.287 88.4262 813.007 87.1636C810.728 85.9011 808.154 85.2698 805.282 85.2698C802.456 85.2698 799.878 85.9011 797.557 87.1636C795.278 88.4262 793.464 90.2781 792.112 92.719C790.76 95.1178 790.086 98.1061 790.086 101.683C790.086 105.26 790.76 108.27 792.112 110.711C793.464 113.151 795.278 115.003 797.557 116.266C799.878 117.487 802.456 118.097 805.282 118.097ZM871.465 81.1664V85.9011H847.404V99.4106H867.096V104.145H847.404V122.2H842.338V81.1664H871.465ZM884.491 81.1664H917.417V85.9011H884.491V81.1664ZM898.421 85.3961H903.487V122.2H898.421V85.3961ZM508.381 192.915V183.799H533.595C537.123 183.799 539.945 182.776 542.062 180.729C544.247 178.682 545.337 175.931 545.337 172.477C545.337 168.895 544.247 166.113 542.062 164.129C539.945 162.083 537.123 161.059 533.595 161.059H509.918V213.736H498.946V151.56H532.822C536.096 151.56 539.145 152.008 541.967 152.903C544.789 153.735 547.259 155.014 549.376 156.741C551.56 158.469 553.229 160.643 554.382 163.266C555.599 165.825 556.21 168.895 556.21 172.477C556.21 175.995 555.599 179.066 554.382 181.689C553.229 184.247 551.56 186.358 549.376 188.021C547.259 189.684 544.789 190.932 541.967 191.764C539.145 192.531 536.096 192.915 532.822 192.915H508.381ZM619.516 187.542V151.56H630.393V188.405C630.393 192.307 629.846 195.729 628.756 198.672C627.729 201.614 626.255 204.109 624.328 206.156C622.401 208.203 620.126 209.898 617.494 211.241C614.866 212.521 611.976 213.449 608.833 214.024C605.753 214.6 602.483 214.887 599.018 214.887C595.423 214.887 592.021 214.6 588.815 214.024C585.608 213.449 582.686 212.521 580.058 211.241C577.426 209.898 575.147 208.203 573.224 206.156C571.361 204.109 569.887 201.614 568.797 198.672C567.77 195.729 567.259 192.307 567.259 188.405V151.56H578.227V187.542C578.227 192.403 579.127 196.113 580.922 198.672C582.786 201.167 585.287 202.894 588.43 203.854C591.574 204.813 595.101 205.292 599.018 205.292C602.804 205.292 606.237 204.813 609.312 203.854C612.392 202.894 614.866 201.167 616.725 198.672C618.584 196.113 619.516 192.403 619.516 187.542ZM644.396 213.736V151.56H681.257C685.875 151.56 689.887 152.232 693.288 153.575C696.689 154.854 699.317 156.869 701.18 159.62C703.039 162.306 703.971 165.761 703.971 169.982C703.971 172.797 703.491 175.228 702.528 177.275C701.565 179.258 700.217 180.889 698.485 182.168C696.752 183.448 694.731 184.439 692.419 185.143C690.176 185.847 687.77 186.294 685.205 186.486L684.242 185.815C688.349 185.879 691.746 186.262 694.441 186.966C697.137 187.606 699.19 188.853 700.601 190.708C702.012 192.499 702.718 195.154 702.718 198.672V213.736H691.845V199.248C691.845 196.817 691.393 194.93 690.497 193.587C689.66 192.179 688.186 191.22 686.069 190.708C684.016 190.132 681.067 189.844 677.214 189.844H655.368V213.736H644.396ZM655.368 180.921H681.257C685.106 180.921 688.028 179.962 690.013 178.043C692.003 176.123 692.998 173.597 692.998 170.462C692.998 167.456 692.003 165.153 690.013 163.554C688.028 161.891 685.106 161.059 681.257 161.059H655.368V180.921ZM735.359 213.736L709.471 151.56H721.402L743.636 207.115H740.077L762.211 151.56H773.953L748.353 213.736H735.359ZM784.247 151.56H795.219V213.736H784.247V151.56ZM822.03 187.254V204.333H865.821V213.736H811.063V151.56H865.726V160.963H822.03V178.234H857.833V187.254H822.03ZM897.49 213.736L872.564 151.56H884.495L905.671 206.252H902.202L922.415 151.56H934.83L955.043 206.252H951.578L972.75 151.56H984.491L959.855 213.736H946.956L927.033 159.14H930.307L910.289 213.736H897.49ZM529.073 243.096C535.807 243.096 541.452 243.928 546.011 245.591C550.565 247.254 554.188 249.525 556.883 252.403C559.579 255.218 561.506 258.48 562.659 262.191C563.876 265.901 564.486 269.803 564.486 273.896C564.486 278.054 563.844 282.021 562.564 285.794C561.28 289.569 559.226 292.927 556.404 295.87C553.645 298.748 550.018 301.051 545.527 302.778C541.035 304.441 535.549 305.273 529.073 305.273H499.14V243.096H529.073ZM510.113 295.678H528.973C533.722 295.678 537.666 295.07 540.814 293.854C543.957 292.639 546.458 291.008 548.317 288.961C550.181 286.85 551.497 284.515 552.266 281.957C553.035 279.334 553.419 276.647 553.419 273.896C553.419 271.146 553.035 268.523 552.266 266.029C551.497 263.47 550.181 261.199 548.317 259.216C546.458 257.169 543.957 255.57 540.814 254.419C537.666 253.203 533.722 252.595 528.973 252.595H510.113V295.678ZM581.935 290.688V281.381H619.082V290.688H581.935ZM567.499 305.273L594.735 243.096H606.476L633.903 305.273H622.067L598.2 249.141H603.012L579.24 305.273H567.499ZM690.737 243.096L665.328 285.027V305.273H654.355V285.027L628.95 243.096H641.556L663.016 279.75H657.051L678.222 243.096H690.737ZM694.844 284.643H705.527C705.78 287.01 706.712 289.153 708.317 291.072C709.982 292.927 712.166 294.398 714.862 295.485C717.621 296.509 720.764 297.021 724.292 297.021C727.435 297.021 730.036 296.637 732.089 295.87C734.143 295.102 735.649 294.046 736.612 292.703C737.639 291.296 738.15 289.665 738.15 287.809C738.15 285.954 737.539 284.515 736.323 283.492C735.169 282.404 733.369 281.509 730.931 280.805C728.494 280.037 725.382 279.302 721.596 278.598C718.453 278.022 715.404 277.255 712.456 276.295C709.502 275.336 706.838 274.121 704.464 272.649C702.157 271.178 700.325 269.387 698.982 267.276C697.634 265.101 696.96 262.542 696.96 259.6C696.96 256.274 697.888 253.267 699.751 250.58C701.673 247.894 704.5 245.783 708.218 244.248C711.94 242.712 716.463 241.945 721.791 241.945C729.936 241.945 736.16 243.832 740.461 247.606C744.758 251.316 746.843 256.37 746.716 262.766H736.228C736.033 258.737 734.559 255.826 731.8 254.035C729.041 252.244 725.545 251.348 721.307 251.348C717.521 251.348 714.346 252.02 711.782 253.363C709.213 254.706 707.933 256.881 707.933 259.888C707.933 261.167 708.218 262.287 708.797 263.246C709.439 264.142 710.466 264.973 711.877 265.741C713.288 266.445 715.215 267.148 717.652 267.852C720.153 268.491 723.202 269.195 726.793 269.963C729.873 270.474 732.763 271.178 735.454 272.073C738.15 272.969 740.493 274.089 742.483 275.432C744.536 276.775 746.137 278.502 747.295 280.613C748.448 282.724 749.027 285.315 749.027 288.385C749.027 291.903 748.127 295.038 746.332 297.788C744.536 300.475 741.777 302.618 738.055 304.217C734.396 305.752 729.651 306.52 723.812 306.52C719.385 306.52 715.499 306.008 712.166 304.985C708.892 303.897 706.101 302.522 703.794 300.859C701.483 299.132 699.62 297.277 698.209 295.294C696.861 293.311 695.902 291.392 695.323 289.536C694.807 287.618 694.649 285.986 694.844 284.643Z" fill="white"/>
<mask id="mask0_135_147" style="mask-type:luminance" maskUnits="userSpaceOnUse" x="153" y="63" width="186" height="118">
<path d="M153.898 63.3481H338.794V180.202H153.898V63.3481Z" fill="white"/>
</mask>
<g mask="url(#mask0_135_147)">
<path d="M220.63 285.65C227.373 276.709 234.481 267.923 241.509 259.338C236.583 252.927 231.768 246.5 227.149 240.021C220.9 231.215 214.993 222.332 209.81 213.352C207.211 208.868 204.804 204.356 202.624 199.839C200.427 195.328 198.468 190.806 196.81 186.297C193.508 177.298 191.378 168.35 190.921 159.824C190.707 155.555 190.869 151.332 191.422 147.161C191.976 142.994 192.97 138.915 194.283 134.957C196.951 127.054 201.112 119.701 206.391 113.392C211.645 107.057 217.996 101.747 224.927 97.73C228.393 95.7234 232.009 94.0428 235.707 92.6838C237.551 91.9957 239.425 91.4257 241.295 90.8476C242.244 90.6059 243.187 90.3624 244.128 90.1207C245.07 89.8754 246.028 89.7253 246.974 89.5156C247.956 89.2924 248.8 89.1792 249.666 89.0372L250.966 88.8189L251.3 88.763L251.723 88.7261L252.565 88.6498L254.248 88.501L255.087 88.4266L255.503 88.3897C254.941 88.391 255.453 88.3861 255.371 88.3829L255.551 88.3743C256.506 88.3288 257.457 88.2814 258.399 88.2341C262.187 88.1629 265.932 88.263 269.599 88.6719C273.25 89.1265 276.817 89.8281 280.27 90.7444C283.697 91.7233 287.026 92.8596 290.216 94.1831C296.539 96.9269 302.261 100.385 307.241 104.253C312.247 108.105 316.464 112.398 320.013 116.714C323.549 121.045 326.372 125.436 328.637 129.598C333.113 137.968 335.336 145.383 336.523 150.49C336.8 151.777 337.044 152.913 337.255 153.895C337.457 154.887 337.573 155.741 337.695 156.417C337.921 157.78 338.036 158.482 338.036 158.482C338.036 158.482 338.118 157.775 338.274 156.406C338.347 155.718 338.469 154.871 338.549 153.851C338.617 152.832 338.683 151.64 338.748 150.279C338.782 148.925 338.758 147.42 338.763 145.74C338.719 144.906 338.67 144.032 338.62 143.123C338.568 142.206 338.519 141.253 338.391 140.27C338.05 136.308 337.228 131.772 335.84 126.763C334.458 121.749 332.399 116.289 329.427 110.633C327.965 107.793 326.237 104.929 324.284 102.039C322.271 99.2045 320.089 96.2929 317.562 93.5004C315.084 90.6632 312.288 87.9144 309.226 85.2738C306.155 82.6346 302.774 80.1613 299.163 77.7877C295.505 75.4952 291.605 73.3096 287.41 71.4496C283.206 69.622 278.76 68.0262 274.091 66.7294C269.413 65.497 264.527 64.5352 259.479 64.0248C258.216 63.9215 256.944 63.82 255.668 63.7154C254.427 63.6663 253.179 63.6189 251.929 63.5698L251.081 63.5378L250.656 63.5193L250.143 63.5261L248.054 63.5648C246.653 63.5937 245.22 63.6189 243.932 63.7321C233.312 64.2886 222.357 66.9476 211.839 71.5344C206.583 73.8422 201.426 76.6297 196.516 79.9571C191.625 83.3011 186.957 87.1334 182.626 91.4275C173.988 100.033 166.711 110.531 161.695 122.364C156.664 134.169 153.93 147.302 153.91 160.551L153.9 161.574C153.898 161.917 153.889 162.218 153.91 162.712L154.001 165.4L154.057 166.742L154.144 167.968L154.326 170.424C154.626 173.68 155.063 176.919 155.63 180.103C156.763 186.475 158.334 192.689 160.284 198.701C162.24 204.703 164.528 210.517 167.032 216.165C169.557 221.806 172.315 227.272 175.223 232.603C178.12 237.938 181.223 243.1 184.417 248.156C187.611 253.209 190.905 258.154 194.301 262.978C201.29 272.971 208.612 282.531 216.012 291.802C217.461 289.851 218.964 287.856 220.63 285.65Z" fill="#51DBFC"/>
</g>
<mask id="mask1_135_147" style="mask-type:luminance" maskUnits="userSpaceOnUse" x="178" y="98" width="152" height="83">
<path d="M178.262 98.2734H329.57V180.205H178.262V98.2734Z" fill="white"/>
</mask>
<g mask="url(#mask1_135_147)">
<path d="M208.474 135.379C208.474 135.379 208.597 134.867 208.836 133.874C209.055 132.882 209.456 131.411 210.122 129.514C211.504 125.801 213.894 120.187 219.22 114.483C224.439 108.765 232.763 103.244 243.518 100.454C254.223 97.6514 267.21 97.4823 280.502 101.458C287.136 103.438 293.828 106.481 300.161 110.737C306.481 114.992 312.368 120.579 317.178 127.358C322.01 134.123 325.532 142.171 327.445 150.705C329.415 159.252 329.556 168.244 328.435 176.998C328.178 179.199 327.778 181.363 327.38 183.545L326.67 186.724C326.357 187.89 326.026 189.135 325.684 190.237C324.35 194.599 322.694 198.771 320.855 202.795C317.168 210.855 312.731 218.34 307.959 225.511C298.466 239.897 287.702 253.124 277.054 266.197C266.29 279.169 255.561 291.932 245.374 304.596C242.841 307.772 240.34 310.949 237.909 314.127C235.447 317.29 233.035 320.454 230.703 323.627C226.016 329.967 221.649 336.357 217.54 342.712C209.401 355.452 202.683 368.308 198.347 381.043C197.234 384.218 196.31 387.386 195.531 390.536L195.247 391.716L195.106 392.302L195.035 392.6L194.999 392.745C194.997 392.735 194.953 392.972 194.985 392.765C194.812 393.613 194.644 394.46 194.472 395.308C194.189 396.945 193.914 398.257 193.7 399.866C192.771 406.037 192.592 412.116 192.959 417.922C193.652 429.563 196.818 440.072 201.137 448.723C205.433 457.418 210.901 464.204 215.878 469.358C220.912 474.485 225.419 478.097 228.612 480.378C230.19 481.555 231.452 482.389 232.291 482.971C233.135 483.553 233.572 483.855 233.572 483.855C233.572 483.855 233.081 483.657 232.13 483.282C231.184 482.886 229.733 482.38 227.941 481.515C224.334 479.846 219.018 477.267 212.861 472.839C206.735 468.434 199.685 462.157 193.508 453.247C190.41 448.812 187.603 443.724 185.182 438.09C182.835 432.439 180.933 426.218 179.746 419.562C179.109 416.236 178.728 412.798 178.495 409.283C178.248 405.768 178.202 402.164 178.363 398.503C178.404 396.737 178.594 394.664 178.764 392.889C178.859 392.035 178.952 391.176 179.049 390.314C179.192 389.347 179.334 388.379 179.479 387.406C180.055 383.692 180.797 379.953 181.741 376.227C185.503 361.295 191.993 346.506 200.045 332.318C204.035 325.196 208.462 318.22 213.121 311.341C215.441 307.894 217.832 304.484 220.265 301.084C222.715 297.7 225.233 294.353 227.766 291.005C237.874 277.606 248.723 264.643 259.294 251.709C264.631 245.283 269.899 238.867 274.983 232.431C280.027 225.976 285.025 219.601 289.524 213.109C294.021 206.624 298.19 200.115 301.518 193.59C303.174 190.326 304.614 187.062 305.749 183.834L306.491 181.63L307.235 179.04C307.634 177.343 308.061 175.652 308.348 173.963C310.955 160.452 308.992 147.26 302.731 136.704C296.561 126.087 286.513 118.316 276.035 113.881C265.526 109.354 254.585 108.032 245.187 109.088C235.742 110.121 227.863 113.629 222.316 117.857C219.529 119.966 217.282 122.207 215.46 124.303C213.653 126.417 212.335 128.413 211.312 130.072C210.339 131.742 209.59 133.059 209.162 133.991C208.707 134.905 208.474 135.379 208.474 135.379Z" fill="url(#paint0_linear_135_147)"/>
</g>
<path d="M437.289 213.179C436.872 210.716 436.301 208.241 435.567 205.778C434.811 203.323 433.879 200.887 432.79 198.484C428.442 188.892 421.338 179.786 411.826 173.064C402.382 166.297 390.809 161.841 378.858 160.331C372.884 159.526 366.83 159.413 360.84 159.827C354.836 160.221 348.912 161.212 343.109 162.603C337.303 163.986 331.624 165.812 326.105 167.978C324.715 168.508 323.358 169.08 321.982 169.648C320.61 170.248 319.305 170.787 317.863 171.467L315.781 172.442L313.998 173.306L313.55 173.521L312.911 173.847L311.897 174.373C311.224 174.725 310.53 175.073 309.881 175.433C304.565 178.299 299.556 181.345 294.748 184.53C289.923 187.708 285.244 190.966 280.67 194.304C271.521 200.987 262.664 207.87 253.896 214.788C253.769 214.887 253.643 214.986 253.516 215.084C259.673 220.138 265.722 225.071 271.818 229.926C274.573 232.104 277.876 234.695 281.212 237.216C282.588 238.278 283.877 239.258 285.123 240.205C291.511 234.93 297.795 229.762 304.016 224.854C308.143 221.595 312.22 218.437 316.275 215.502C320.335 212.563 324.331 209.81 328.237 207.409C328.73 207.098 329.211 206.829 329.697 206.538L330.423 206.107L330.605 205.999C330.692 205.947 330.446 206.075 330.654 205.962L331.084 205.72L332.813 204.746L334.265 203.953C335.167 203.438 336.254 202.887 337.242 202.357C338.26 201.849 339.269 201.328 340.291 200.848C342.322 199.872 344.356 198.966 346.392 198.146C348.427 197.321 350.449 196.54 352.475 195.872C360.57 193.162 368.559 191.769 376.028 191.903C383.483 192.063 390.432 193.69 396.391 196.856C399.364 198.435 402.078 200.371 404.541 202.549C406.995 204.74 409.114 207.242 410.886 209.926C412.645 212.619 414.077 215.485 415.143 218.434C416.204 221.383 416.871 224.418 417.161 227.431C417.747 233.459 416.895 239.402 414.783 244.66C412.721 249.941 409.53 254.584 405.818 258.357C402.151 262.205 397.979 265.168 393.962 267.559C385.858 272.311 378.385 274.646 373.322 276.138C370.768 276.855 368.777 277.363 367.428 277.685C366.076 277.997 365.379 278.157 365.379 278.157C365.379 278.157 366.093 278.223 367.478 278.343C368.87 278.453 370.937 278.613 373.651 278.639C376.372 278.685 379.74 278.605 383.725 278.201C387.711 277.819 392.297 277.016 397.397 275.545C402.482 274.044 408.063 271.748 413.719 268.118C419.315 264.458 424.962 259.353 429.463 252.504C433.889 245.66 437.158 237.121 437.916 227.696C438.305 222.998 438.114 218.107 437.289 213.179Z" fill="url(#paint1_linear_135_147)"/>
<mask id="mask2_135_147" style="mask-type:luminance" maskUnits="userSpaceOnUse" x="23" y="143" width="231" height="185">
<path d="M23.9109 143.875H253.482V327.92H23.9109V143.875Z" fill="white"/>
</mask>
<g mask="url(#mask2_135_147)">
<path d="M247.205 261.496C238.222 254.784 229.394 247.709 220.769 240.713C214.33 245.616 207.871 250.407 201.363 255.007C192.516 261.227 183.593 267.107 174.572 272.265C170.067 274.853 165.533 277.249 160.995 279.419C156.465 281.605 151.92 283.556 147.393 285.206C138.352 288.491 129.361 290.613 120.797 291.067C116.507 291.281 112.264 291.12 108.076 290.569C103.888 290.018 99.7893 289.029 95.8137 287.722C87.8734 285.066 80.4872 280.922 74.1484 275.669C67.7862 270.439 62.4515 264.118 58.4162 257.217C56.4004 253.768 54.7102 250.169 53.3465 246.488C52.6536 244.652 52.0829 242.788 51.5021 240.926C51.2574 239.981 51.0127 239.043 50.7717 238.106C50.5252 237.168 50.3723 236.215 50.162 235.273C49.9395 234.296 49.8255 233.455 49.6812 232.593L49.4623 231.3L49.4076 230.965L49.3687 230.546L49.2923 229.707L49.143 228.032L49.0697 227.197L49.0308 226.783C49.034 227.342 49.0272 226.833 49.0259 226.913L49.0173 226.735C48.9711 225.785 48.9218 224.838 48.8743 223.898C48.8033 220.13 48.9033 216.402 49.3162 212.752C49.7712 209.116 50.4777 205.566 51.3985 202.13C52.3818 198.719 53.5229 195.405 54.8513 192.23C57.6093 185.936 61.081 180.24 64.9689 175.283C68.8395 170.3 73.1516 166.102 77.4858 162.568C81.8373 159.05 86.2479 156.241 90.4311 153.985C98.8386 149.531 106.29 147.318 111.418 146.134C112.713 145.861 113.852 145.617 114.839 145.407C115.838 145.206 116.694 145.09 117.375 144.97C118.744 144.743 119.449 144.628 119.449 144.628C119.449 144.628 118.737 144.547 117.361 144.392C116.672 144.32 115.819 144.199 114.797 144.119C113.771 144.052 112.575 143.984 111.208 143.921C109.848 143.886 108.334 143.911 106.648 143.906C105.809 143.95 104.932 143.999 104.017 144.048C103.098 144.101 102.138 144.149 101.153 144.277C97.1724 144.616 92.6152 145.434 87.5831 146.816C82.5455 148.19 77.0598 150.241 71.3768 153.199C68.5234 154.653 65.6464 156.374 62.7454 158.317C59.8974 160.32 56.9725 162.494 54.167 165.01C51.3153 167.476 48.555 170.259 45.9024 173.307C43.2511 176.364 40.7663 179.73 38.38 183.324C36.077 186.966 33.8826 190.847 32.0144 195.023C30.1767 199.207 28.5734 203.633 27.2707 208.279C26.0342 212.935 25.0662 217.799 24.5549 222.825C24.4513 224.083 24.3477 225.349 24.2441 226.619C24.1949 227.855 24.1473 229.097 24.098 230.341L24.0641 231.185L24.0471 231.608L24.0539 232.118L24.0913 234.198C24.1201 235.592 24.1473 237.019 24.2594 238.301C24.8182 248.872 27.4898 259.775 32.0993 270.244C34.4159 275.479 37.2166 280.611 40.5608 285.497C43.9185 290.368 47.7703 295.012 52.0847 299.325C60.7296 307.921 71.2764 315.167 83.162 320.158C95.0222 325.167 108.215 327.889 121.527 327.909L122.553 327.918C122.898 327.921 123.202 327.93 123.698 327.909L126.397 327.816L127.745 327.762L128.977 327.676L131.445 327.495C134.717 327.196 137.97 326.761 141.168 326.197C147.571 325.069 153.812 323.505 159.852 321.564C165.883 319.615 171.722 317.338 177.397 314.847C183.064 312.332 188.555 309.587 193.911 306.694C199.272 303.809 204.456 300.719 209.537 297.543C214.612 294.363 219.582 291.085 224.426 287.703C234.465 280.746 244.072 273.458 253.385 266.091C251.426 264.65 249.421 263.154 247.205 261.496Z" fill="url(#paint2_linear_135_147)"/>
</g>
<path d="M96.2331 273.596C96.2331 273.596 95.7202 273.474 94.7215 273.236C93.7247 273.018 92.2489 272.619 90.3416 271.956C86.6134 270.58 80.973 268.199 75.2408 262.899C69.4986 257.704 63.9499 249.419 61.149 238.714C58.3317 228.058 58.1616 215.128 62.158 201.899C64.1453 195.296 67.2023 188.635 71.4791 182.331C75.7537 176.04 81.367 170.18 88.1779 165.392C94.9712 160.583 103.058 157.076 111.633 155.173C120.216 153.212 129.252 153.071 138.045 154.187C140.256 154.442 142.432 154.841 144.623 155.235L147.816 155.944C148.987 156.255 150.239 156.585 151.345 156.924C155.727 158.253 159.919 159.9 163.963 161.732C172.059 165.403 179.58 169.819 186.783 174.569C201.234 184.018 214.524 194.731 227.658 205.331C240.689 216.046 253.51 226.724 266.234 236.866C269.425 239.385 272.615 241.877 275.81 244.296C278.987 246.746 282.163 249.148 285.353 251.469C291.722 256.135 298.142 260.48 304.525 264.571C317.326 272.673 330.239 279.361 343.035 283.675C346.223 284.784 349.405 285.704 352.571 286.478L353.755 286.762L354.346 286.903L354.643 286.972L354.789 287.009C354.779 287.011 355.019 287.054 354.81 287.021C355.66 287.195 356.513 287.362 357.364 287.532C359.008 287.816 360.326 288.089 361.945 288.302C368.142 289.227 374.25 289.405 380.084 289.039C391.779 288.348 402.335 285.198 411.025 280.899C419.762 276.624 426.58 271.18 431.76 266.227C436.907 261.216 440.537 256.729 442.828 253.55C444.012 251.98 444.848 250.724 445.435 249.888C446.018 249.047 446.319 248.614 446.319 248.614C446.319 248.614 446.123 249.101 445.745 250.049C445.349 250.991 444.841 252.435 443.97 254.216C442.293 257.809 439.7 263.1 435.253 269.229C430.826 275.327 424.521 282.345 415.569 288.493C411.115 291.577 406.003 294.371 400.346 296.781C394.668 299.116 388.418 301.01 381.73 302.192C378.389 302.826 374.934 303.205 371.403 303.437C367.872 303.683 364.251 303.729 360.574 303.567C358.799 303.526 356.719 303.338 354.935 303.169C354.078 303.073 353.213 302.982 352.347 302.885C351.377 302.743 350.402 302.601 349.426 302.456C345.696 301.885 341.937 301.146 338.194 300.204C323.194 296.461 308.336 290 294.083 281.986C286.928 278.015 279.921 273.606 273.011 268.97C269.548 266.661 266.12 264.28 262.705 261.86C259.306 259.419 255.942 256.913 252.58 254.392C239.117 244.331 226.096 233.531 213.101 223.01C206.647 217.698 200.201 212.452 193.736 207.394C187.251 202.373 180.846 197.395 174.324 192.919C167.808 188.442 161.269 184.293 154.713 180.98C151.435 179.332 148.155 177.898 144.913 176.769L142.7 176.029L140.096 175.289C138.393 174.892 136.694 174.467 134.996 174.18C121.423 171.587 108.172 173.54 97.5664 179.773C86.8988 185.914 79.0911 195.914 74.6361 206.344C70.0897 216.805 68.7613 227.696 69.8229 237.052C70.859 246.452 74.385 254.296 78.6324 259.817C80.7505 262.592 83.0024 264.828 85.1069 266.641C87.2299 268.44 89.2376 269.753 90.9038 270.771C92.5818 271.739 93.9029 272.485 94.8387 272.911C95.7595 273.364 96.2331 273.596 96.2331 273.596Z" fill="url(#paint3_linear_135_147)"/>
<path fill-rule="evenodd" clip-rule="evenodd" d="M278.978 153.63C271.923 153.619 265.161 150.911 260.173 146.102C255.187 141.292 252.382 134.773 252.376 127.974C245.68 128.038 239.169 130.092 233.731 133.856C228.293 137.62 224.193 142.909 221.991 149.002C219.789 155.095 219.593 161.695 221.429 167.9C223.265 174.104 227.044 179.611 232.25 183.669C237.455 187.726 243.834 190.136 250.514 190.569C257.194 191.003 263.85 189.438 269.573 186.09C275.296 182.741 279.807 177.771 282.489 171.86C285.171 165.948 285.894 159.383 284.56 153.06C282.725 153.437 280.854 153.628 278.978 153.63Z" fill="#51DBFC"/>
<defs>
<linearGradient id="paint0_linear_135_147" x1="252.484" y1="80.944" x2="303.281" y2="394.552" gradientUnits="userSpaceOnUse">
<stop stop-color="white" stop-opacity="0.979224"/>
<stop offset="0.14972" stop-color="#1394FC"/>
<stop offset="0.237986" stop-color="#1897FC"/>
<stop offset="0.34143" stop-color="#91C0FF"/>
<stop offset="1" stop-color="#4BDFF9" stop-opacity="0"/>
</linearGradient>
<linearGradient id="paint1_linear_135_147" x1="345.813" y1="159.592" x2="345.813" y2="278.65" gradientUnits="userSpaceOnUse">
<stop stop-color="#016DC0"/>
<stop offset="0.0001" stop-color="white"/>
<stop offset="0.0002" stop-color="#4FE4FD"/>
<stop offset="1" stop-color="#5EA0EF"/>
</linearGradient>
<linearGradient id="paint2_linear_135_147" x1="138.716" y1="143.902" x2="138.716" y2="327.922" gradientUnits="userSpaceOnUse">
<stop stop-color="white"/>
<stop offset="0.0001" stop-color="#51DDFC"/>
<stop offset="1" stop-color="#5EA0EF"/>
</linearGradient>
<linearGradient id="paint3_linear_135_147" x1="252.703" y1="153.487" x2="252.703" y2="303.662" gradientUnits="userSpaceOnUse">
<stop stop-color="#0A82E4"/>
<stop offset="0.51875" stop-color="#A0DDFF"/>
<stop offset="0.9999" stop-color="#1394FC"/>
<stop offset="1" stop-color="#0A82E4"/>
</linearGradient>
</defs>
</svg>
