<svg width="50" height="87" viewBox="0 0 50 87" fill="none" xmlns="http://www.w3.org/2000/svg">
<path d="M27.8438 61.875H12.375C10.734 61.875 9.16019 61.2231 7.99981 60.0627C6.83943 58.9023 6.18753 57.3285 6.18753 55.6875V52.5938H15.4688C16.2893 52.5938 17.0762 52.2678 17.6564 51.6876C18.2366 51.1074 18.5625 50.3205 18.5625 49.5C18.5625 48.6795 18.2366 47.8926 17.6564 47.3124C17.0762 46.7322 16.2893 46.4062 15.4688 46.4062H6.18753V37.125H15.4688C16.2893 37.125 17.0762 36.799 17.6564 36.2189C18.2366 35.6387 18.5625 34.8518 18.5625 34.0312C18.5625 33.2107 18.2366 32.4238 17.6564 31.8436C17.0762 31.2634 16.2893 30.9375 15.4688 30.9375H6.18753V21.6562H15.4688C16.2893 21.6562 17.0762 21.3303 17.6564 20.7501C18.2366 20.1699 18.5625 19.383 18.5625 18.5625C18.5625 17.742 18.2366 16.9551 17.6564 16.3749C17.0762 15.7947 16.2893 15.4688 15.4688 15.4688H6.18753V12.375C6.18753 10.734 6.83943 9.16016 7.99981 7.99978C9.16019 6.8394 10.734 6.1875 12.375 6.1875H37.125C38.7661 6.1875 40.3399 6.8394 41.5003 7.99978C42.6606 9.16016 43.3125 10.734 43.3125 12.375V15.4688H34.0313C33.2108 15.4688 32.4239 15.7947 31.8437 16.3749C31.2635 16.9551 30.9375 17.742 30.9375 18.5625C30.9375 19.383 31.2635 20.1699 31.8437 20.7501C32.4239 21.3303 33.2108 21.6562 34.0313 21.6562H43.3125V30.9375H34.0313C33.2108 30.9375 32.4239 31.2634 31.8437 31.8436C31.2635 32.4238 30.9375 33.2107 30.9375 34.0312C30.9375 34.8518 31.2635 35.6387 31.8437 36.2189C32.4239 36.799 33.2108 37.125 34.0313 37.125H43.3125V46.4062H34.0313C33.2108 46.4062 32.4239 46.7322 31.8437 47.3124C31.2635 47.8926 30.9375 48.6795 30.9375 49.5C30.9375 50.3205 31.2635 51.1074 31.8437 51.6876C32.4239 52.2678 33.2108 52.5938 34.0313 52.5938H43.3125V55.6875C43.3125 57.3285 42.6606 58.9023 41.5003 60.0627C40.3399 61.2231 38.7661 61.875 37.125 61.875H27.8438ZM21.6563 68.0625V80.4375H3.09378C2.27327 80.4375 1.48636 80.7634 0.906166 81.3436C0.325974 81.9238 3.05176e-05 82.7107 3.05176e-05 83.5312C3.05176e-05 84.3518 0.325974 85.1387 0.906166 85.7189C1.48636 86.2991 2.27327 86.625 3.09378 86.625H46.4063C47.2268 86.625 48.0137 86.2991 48.5939 85.7189C49.1741 85.1387 49.5 84.3518 49.5 83.5312C49.5 82.7107 49.1741 81.9238 48.5939 81.3436C48.0137 80.7634 47.2268 80.4375 46.4063 80.4375H27.8438V68.0625H37.125C40.4071 68.0625 43.5547 66.7587 45.8755 64.4379C48.1962 62.1172 49.5 58.9696 49.5 55.6875V12.375C49.5 9.09295 48.1962 5.94532 45.8755 3.62455C43.5547 1.30379 40.4071 0 37.125 0H12.375C9.09298 0 5.94535 1.30379 3.62459 3.62455C1.30383 5.94532 3.05176e-05 9.09295 3.05176e-05 12.375V55.6875C3.05176e-05 58.9696 1.30383 62.1172 3.62459 64.4379C5.94535 66.7587 9.09298 68.0625 12.375 68.0625H21.6563Z" fill="white"/>
</svg>
