<svg width="84" height="75" viewBox="0 0 84 75" fill="none" xmlns="http://www.w3.org/2000/svg">
<path d="M31.5898 0.375001C26.3857 0.373433 21.2654 1.68463 16.7026 4.18724C12.1399 6.68986 8.28213 10.303 5.48643 14.6923C2.69073 19.0816 1.04743 24.1052 0.708605 29.2982C0.369781 34.4912 1.34639 39.6858 3.54804 44.4011L0.561539 56.1244C0.34203 56.9855 0.348809 57.8888 0.581217 58.7465C0.813625 59.6043 1.26377 60.3874 1.88799 61.0199C2.51221 61.6524 3.28931 62.1129 4.14391 62.3566C4.9985 62.6003 5.90158 62.619 6.76553 62.4109C9.85928 61.6684 14.6154 60.5258 18.8518 59.5151C23.0581 61.412 27.6355 62.3438 32.2486 62.2426C36.8617 62.1413 41.3937 61.0094 45.5128 58.9298C49.6318 56.8502 53.2335 53.8756 56.054 50.2238C58.8746 46.572 60.8426 42.3355 61.8138 37.8246C62.7851 33.3138 62.7351 28.6428 61.6674 24.1538C60.5997 19.6648 58.5413 15.4715 55.6432 11.8809C52.745 8.29041 49.0804 5.39364 44.9178 3.40278C40.7551 1.41193 36.1999 0.37741 31.5856 0.375001H31.5898ZM6.83979 31.3125C6.84141 25.9306 8.59726 20.6959 11.8413 16.4016C15.0853 12.1073 19.6406 8.98739 24.8171 7.51467C29.9936 6.04195 35.509 6.29667 40.5277 8.24024C45.5464 10.1838 49.7948 13.7103 52.6292 18.2853C55.4636 22.8604 56.7295 28.2346 56.2351 33.5937C55.7407 38.9529 53.5129 44.0048 49.8893 47.984C46.2657 51.9633 41.4438 54.6529 36.1542 55.6455C30.8646 56.638 25.3957 55.8793 20.576 53.4844L19.5695 52.9853L18.4805 53.2451C14.6732 54.1526 10.2718 55.2045 6.98003 55.9965L9.82628 44.826L10.115 43.6875L9.57878 42.6439C7.77219 39.1404 6.83288 35.2544 6.83979 31.3125ZM52.2148 74.625C44.4109 74.6363 36.8931 71.6881 31.1773 66.375H31.5898C34.5515 66.375 37.4266 66.0079 40.1698 65.3149C43.7379 67.3031 47.8423 68.4375 52.2148 68.4375C56.1748 68.4375 59.912 67.5094 63.2285 65.8594L64.2309 65.3603L65.3199 65.6201C69.1231 66.5276 73.4296 67.4558 76.6224 68.1364C75.9005 65.0385 74.9146 60.8929 73.9741 57.201L73.6854 56.0625L74.2216 55.0189C76.0296 51.5157 76.9704 47.6297 76.9647 43.6875C76.9669 39.5496 75.9306 35.4772 73.9509 31.8436C71.9712 28.2099 69.1114 25.1311 65.6334 22.8893C64.9061 19.9428 63.7967 17.1041 62.3334 14.4454C66.4284 15.8634 70.18 18.1255 73.3453 21.0854C76.5106 24.0452 79.019 27.6368 80.7082 31.6276C82.3974 35.6184 83.2296 39.9195 83.1511 44.2523C83.0726 48.5852 82.085 52.8533 80.2524 56.7803C81.296 60.9383 82.352 65.4428 83.0202 68.3426C83.2162 69.1828 83.1971 70.0587 82.9649 70.8896C82.7326 71.7204 82.2947 72.4792 81.6915 73.096C81.0883 73.7127 80.3394 74.1675 79.5139 74.4181C78.6885 74.6688 77.8131 74.7073 76.9689 74.5302C72.9537 73.6952 68.9481 72.8152 64.9528 71.8902C60.95 73.6985 56.6071 74.6309 52.2148 74.625Z" fill="white"/>
</svg>
